<svg version="1" xmlns="http://www.w3.org/2000/svg" width="170.667" height="170.667"
     viewBox="0 0 128.000000 128.000000">
  <path
    d="M39.2 14.4c-4 2-4.2 3.4-4.2 24.8 0 20.8 0 20.9 2.5 23.3l2.4 2.5H24.1C2.4 65 4 63.1 4 90.2c0 20.6.1 21.2 2.3 23.6l2.2 2.5-2.3-1.2c-1.3-.7-2.6-1-3-.7-.3.3 0 .6.8.6 1 0 1 .3.1 1.4-1 1.2-.9 1.4.6 1.2 1-.2 2.1.2 2.5.8.5.8.8.7.8-.2 0-.6 1.1-1.2 2.5-1.2s2.5.4 2.5.8 2.7.8 5.9.8c5.1 0 5.8-.3 4.8-1.5s-.9-1.3 1-.3c1.2.7 2.3 1.5 2.5 1.9.3.5.4.3.2-.3-.1-.6.4-1.1 1.2-1.1.7 0 1 .5.7 1.1-.4.6.1.5 1-.3 1.6-1.2 2.2-.8 1.8 1.2-.1.5.3.6.9.2.6-.3.8-1.1.5-1.6-.4-.5-.1-.9.4-.9.6 0 1.1.3 1.1.7 0 .5 2.8.8 6.3.8 4.9-.1 6.1-.4 5.9-1.5-.2-1.1.2-1 1.2.3 1.3 1.6 1.4 1.6 2 .1.5-1.3 1-1.4 1.8-.6.8.8 1.7.8 3.1.1 1.3-.8 1.7-.8 1.3-.1-.3.6-.1 1.4.6 1.8.7.4 1 .4.6-.1-.4-.4-.3-1.4.3-2.2.9-1 .8-1.3 0-1.3s-.7-.7.3-2.2c1.3-1.9 1.6-5.8 1.6-22.4 0-18.9-.1-20.3-2.1-22.8l-2-2.6 5.5-.1c12.3-.3 12.3-.3 9.5 2-2.4 1.9-2.4 2.2-2.5 22.3-.1 14.7.2 21.1 1.1 23 1.3 2.7.5 4.5-1.3 3.4-.5-.3-.9.1-.9.8 0 .8.8 1.1 2 .8 1.5-.4 1.8-.2 1.2.8-.5.9-.4 1.1.4.6.6-.4.9-1.2.6-1.7-.7-1 2.4-.1 4.2 1.4.9.6 1.5.4 2-.8.6-1.6.7-1.6 1.5.5.6 1.6 1.2 1.9 2.1 1.3.6-.6 2.9-.9 4.9-.9 2 .1 3.4-.2 3.2-.6-.3-.5 0-.8.5-.8.6 0 1.1.5 1.1 1.1 0 .8.5.8 1.5-.1 1.2-1 1.5-1 1.5 0s.3 1 1.5 0c1-.9 1.5-.9 1.5-.1 0 .6.5 1.1 1.1 1.1.5 0 .8-.4.4-.9-.3-.5 0-1.3.6-1.7.7-.4.9-.3.6.3-.4.6.4 1.3 1.8 1.5 1.5.3 2.5.1 2.5-.6 0-.6.4-.5.9.3.6.9 1.1 1 1.5.2.4-.6 1.2-1.1 1.7-1.1.6 0 .8.4.5.9-.6.9 7.3.6 8.2-.3.3-.3 1.1-.1 1.9.6 1.1.8 1.2.7.7-.6-.5-1.3-.2-1.5 1.2-1 1.1.4 2.5 1.1 3.2 1.7 1.6 1.3 1.5-.1-.2-1.8-.7-.8-1.7-1.1-2.1-.7-.4.4 0-.6 1-2.1 1.6-2.5 1.9-5.3 1.9-21.8.1-20.7-.4-24.3-3.6-26-1.3-.7-8.1-1.1-18.3-1.1H86.3l2.4-2.4C91 60.1 91 59.8 91 39.2c0-19.6-.1-21-2-23-1.2-1.2-2.4-2.3-2.8-2.3-3.6-.7-45.7-.2-47 .5zM21.5 117c-.3.5-1.2 1-1.8 1-.7 0-.6-.4.3-1 1.9-1.2 2.3-1.2 1.5 0zm24 0c-.3.5-1.2 1-1.8 1-.7 0-.6-.4.3-1 1.9-1.2 2.3-1.2 1.5 0zm38.9.2c-.4.5-.9.7-1.2.4-.3-.3-1.2 0-2.1.7-1.4 1-1.4 1-.4-.4 1.3-1.6 4.6-2.3 3.7-.7z"/>
  <path
    d="M59.7 115.9c-.4 1.7-.3 2.1.5 1.3.5-.5.8-1.6.6-2.3-.3-.8-.7-.3-1.1 1zM51 117.9c0 .6.4 1.3 1 1.6.6.3.7-.1.4-.9-.7-1.8-1.4-2.1-1.4-.7z"/>
</svg>
